<?xml version="1.0" encoding="UTF-8"?>
<svg id="Layer_2" data-name="Layer 2" xmlns="http://www.w3.org/2000/svg" viewBox="0 0 82.55 98.85">
  <defs>
    <style>
      .cls-1 {
        fill: #17191e;
      }
    </style>
  </defs>
  <g id="Layer_1-2" data-name="Layer 1">
    <path class="cls-1" d="M41.41,0C31.81,8.93,9.59,17.85,0,20.25c.13,4.93,.13,13.99,.13,18.92l13.81,.13c-.13,9.46-.26,20.92-.26,28.51,0,17.72,9.33,31.04,38.38,31.04,12.22,0,20.37-2.33,30.49-4.46-1.05-6.53-2.23-14.52-2.63-22.11-6.05,2-13.67,2.06-22.08,2.06-11.7,0-16.43-3.2-16.43-12.39,0-7.99,0-15.45,.13-22.38,14.98,.13,29.97-.6,38.77-.33-.13-6.93,.13-14.92,.53-21.58-12.75,.27-27.08-.6-38.91-.6,.13-5.86,.26-11.46,.39-17.05h-.92Z"/>
  </g>
</svg>